<svg xmlns="http://www.w3.org/2000/svg" aria-hidden="true" overflow="hidden" style="position:absolute;width:0;height:0">
  <defs>
    <symbol id="icon-arrow-prev" viewBox="0 0 32 32">
      <path fill="none" stroke-linecap="round" stroke-linejoin="round" stroke-width="2.66" d="M25.34 16H6.66M16 25.34 6.66 16 16 6.66"/>
    </symbol>
    <symbol id="icon-arrow-next" viewBox="0 0 32 32">
      <path fill="none" stroke-linecap="round" stroke-linejoin="round" stroke-width="2.66" d="M6.66 16h18.68M16 25.34 25.34 16 16 6.66"/>
    </symbol>
    <symbol id="icon-close" viewBox="0 0 32 32">
      <path stroke-width="2.13" d="m8.53 8.53 14.94 14.94m-14.94 0L23.47 8.53"/>
    </symbol>
    <symbol id="icon-dots" viewBox="0 0 32 32">
      <path d="M5.18 12.8h.16c.7 0 1.33.28 1.8.74.48.48.7 1.05.7 1.79 0 .7-.22 1.28-.7 1.8-.45.44-1.12.66-1.96.66h-.14c-.69 0-1.3-.25-1.78-.67a2.36 2.36 0 0 1-.73-1.72v-.07c0-.74.22-1.31.7-1.8.46-.45 1.1-.73 1.8-.73h.1-.01zm10.72 0h.15c.7 0 1.34.28 1.8.74.49.48.71 1.05.71 1.79 0 .7-.22 1.28-.7 1.8-.45.44-1.12.66-1.96.66h-.15c-.68 0-1.3-.25-1.77-.67a2.36 2.36 0 0 1-.73-1.72v-.07c0-.74.22-1.31.7-1.8a2.55 2.55 0 0 1 1.93-.73zm10.72 0c.87 0 1.5.26 1.99.74.45.48.67 1.05.67 1.79 0 .7-.22 1.28-.67 1.79a2.74 2.74 0 0 1-2 .67h.01-.15c-.68 0-1.3-.25-1.77-.67a2.36 2.36 0 0 1-.73-1.72v-.08c0-.73.25-1.3.7-1.78a2.55 2.55 0 0 1 1.96-.74z"/>
    </symbol>
    <symbol id="icon-film" viewBox="0 0 32 32">
      <path stroke-linecap="round" stroke-linejoin="round" stroke-width="2.67" d="M26.4 2.67H5.6A2.96 2.96 0 0 0 2.67 5.6v20.8c0 1.6 1.33 2.93 2.93 2.93h20.8c1.6 0 2.93-1.33 2.93-2.93V5.6c0-1.6-1.33-2.93-2.93-2.93zm-17.07 0v26.66M22.67 2.67v26.66M2.67 16h26.66M2.67 9.33h6.66M2.67 22.67h6.66m13.34 0h6.66M22.67 9.33h6.66"/>
    </symbol>
    <symbol id="icon-heart" viewBox="0 0 32 32">
      <path fill="var(--color2, #ff6b08)" d="m16 30.58-2.24-2.24C5.44 20.98 0 16.02 0 9.94v-.11a8.69 8.69 0 0 1 8.8-8.69 9.58 9.58 0 0 1 7.19 3.35l.01.01a9.59 9.59 0 0 1 7.2-3.36h.12c4.8 0 8.68 3.9 8.68 8.69v.12c0 6.07-5.44 11.03-13.76 18.4L16 30.57z"/>
    </symbol>
    <symbol id="icon-placeholder" fill="none" stroke="#000" stroke-linecap="round" stroke-linejoin="round" stroke-miterlimit="10" stroke-width=".51" viewBox="0 0 32 32">
      <path d="m10.68 8.24 13.26-2.76.56 2.76M5.4 19.76 3.33 9.78l2.07-.44M16.95 24.4 6.8 26.5l-.44-2.1m19.61-9.17 1.44 7-1.46.3M5.4 24.4h20.58V8.24m-1.46 0H5.4v14.67"/>
      <path d="m8.8 20.38 3.15-8.4 2.9 3.64m.66.79 1.44 1.77 2.48-1.87 3.71 5.58H8.44m13.93-10.8a1.87 1.87 0 0 1-1.1 3.35c-.76 0-1.43-.46-1.71-1.13m-.1-1.02a1.85 1.85 0 0 1 2.08-1.54h-.01m7.91-5.25-26.88 21"/>
    </symbol>
    <symbol id="icon-search" viewBox="0 0 32 32">
      <path fill="none" stroke="currentColor" stroke-linecap="round" stroke-linejoin="round" stroke-width="2.67" d="M14.67 25.33a10.67 10.67 0 0 0 0-21.33v0a10.67 10.67 0 0 0 0 21.33v0zM28 28l-5.81-5.79"/>
    </symbol>
    <symbol id="icon-arrow-back-to-top" viewBox="0 0 32 32">
      <path fill="currentColor" d="M16 30a1 1 0 0 0 1-1V5.4l6.3 6.3a1 1 0 0 0 1.4-1.4l-8-8a1 1 0 0 0-1.4 0l-8 8a1 1 0 1 0 1.4 1.4L15 5.42V29a1 1 0 0 0 1 1z"/>
    </symbol>
    <symbol id="icon-youtube" viewBox="0 0 76 32">
      <path fill="var(--color4, #cd201f)" d="M75.63 6.95s-.44-3.1-1.8-4.47C72.13.68 70.2.68 69.3.58 62.98.11 53.48.11 53.48.11h-.02s-9.5 0-15.82.45c-.89.11-2.81.12-4.53 1.91-1.36 1.37-1.8 4.47-1.8 4.47s-.45 3.64-.45 7.29v3.41c0 3.65.45 7.3.45 7.3s.44 3.1 1.8 4.46c1.72 1.8 3.98 1.74 4.98 1.92 3.62.35 15.38.46 15.38.46s9.5-.02 15.83-.47c.89-.1 2.82-.12 4.54-1.9 1.35-1.38 1.8-4.48 1.8-4.48s.45-3.64.45-7.29v-3.41c0-3.64-.46-7.29-.46-7.29z"/>
      <path fill="var(--color5, #000)" d="M28.52 25.75h-2.88v-1.67c-1.09 1.25-2.01 1.88-3.02 1.88-.88 0-1.5-.42-1.8-1.17a6.09 6.09 0 0 1-.32-2.22V10.45h2.87v12.42c.07.42.25.58.62.58.55 0 1.05-.48 1.66-1.34V10.45h2.87v15.3zM15.5 21.2c.15 1.52-.32 2.27-1.22 2.27s-1.36-.75-1.2-2.27v-6.06c-.16-1.51.31-2.22 1.2-2.22s1.37.7 1.22 2.22v6.06zm2.88-5.75c0-1.64-.33-2.87-.91-3.64a3.82 3.82 0 0 0-3.18-1.47c-1.38 0-2.42.42-3.19 1.47-.59.77-.9 2.01-.9 3.65v5.44c0 1.62.28 2.75.87 3.51.76 1.05 2 1.6 3.22 1.6s2.47-.55 3.24-1.6c.58-.76.85-1.89.85-3.51v-5.45zM7.02 17.4v8.34H3.99V17.4S.85 7.21.19 5.3h3.19l2.13 7.98L7.62 5.3h3.18L7.02 17.42z"/>
      <path fill="var(--color3, #fff)" d="M66.84 14.68c0-1.41.4-1.8 1.3-1.8.92 0 1.28.42 1.28 1.82v1.66h-2.58v-1.68zm5.46 3.95v-3.1c0-1.62-.32-2.8-.9-3.57a3.84 3.84 0 0 0-3.23-1.58c-1.4 0-2.49.55-3.28 1.58-.58.77-.92 2.02-.92 3.64v5.3c0 1.6.37 2.73.95 3.49a3.93 3.93 0 0 0 3.32 1.55 3.79 3.79 0 0 0 3.96-3.28c.02-.28.1-.9.1-1.79v-.43h-2.88c0 1.1 0 1.76-.02 1.9-.16.74-.55 1.1-1.23 1.1-.94 0-1.34-.7-1.33-2.1v-2.71h5.46zm-13.03 2.72c0 1.52-.36 2.1-1.15 2.1-.45 0-.97-.23-1.43-.7v-9.18c.46-.45.98-.69 1.43-.69.8 0 1.15.45 1.15 1.96v6.51zm.32-11c-1.01 0-2.01.63-2.9 1.72V5.45h-2.72v20.3h2.73v-1.53c.91 1.14 1.91 1.72 2.89 1.72 1.1 0 1.89-.58 2.25-1.7.19-.65.3-1.64.3-3.04v-6.06c0-1.43-.18-2.41-.36-3.02-.37-1.13-1.1-1.76-2.2-1.76zm-7.9 15.4h-2.87v-1.67c-1.1 1.25-2.02 1.88-3.02 1.88-.89 0-1.5-.42-1.81-1.17a6.09 6.09 0 0 1-.32-2.22V10.6h2.88v12.27c.07.42.25.58.61.58.55 0 1.05-.48 1.66-1.34v-11.5h2.88v15.14z"/>
      <path fill="var(--color3, #fff)" d="M40.8 25.75h-3.04V8.33h-3.18V5.45h9.54v2.88H40.8v17.41z"/>
    </symbol>
    <symbol id="icon-github" viewBox="0 0 32 32">
      <path d="M16 .4a16 16 0 0 0-5.06 31.18c.8.14 1.1-.35 1.1-.77L12 27.83c-4.45.97-5.39-1.89-5.39-1.89-.73-1.85-1.77-2.34-1.77-2.34-1.46-1 .1-.97.1-.97 1.61.1 2.46 1.64 2.46 1.64 1.43 2.45 3.74 1.74 4.65 1.33a3.4 3.4 0 0 1 1.02-2.14c-3.55-.4-7.29-1.77-7.29-7.9a6.2 6.2 0 0 1 1.65-4.3c-.17-.4-.71-2.03.15-4.23 0 0 1.35-.43 4.4 1.64a15.35 15.35 0 0 1 8.02 0c3.05-2.07 4.4-1.64 4.4-1.64.86 2.2.32 3.83.15 4.23a6.18 6.18 0 0 1 1.65 4.3c0 6.14-3.75 7.5-7.3 7.9.57.49 1.08 1.46 1.08 2.96l-.02 4.39c0 .42.29.92 1.1.76A16 16 0 0 0 16 .4z"/>
    </symbol>
    <symbol id="icon-linkedin" viewBox="0 0 32 32">
      <path d="M29 0H3a3 3 0 0 0-3 3v26a3 3 0 0 0 3 3h26a3 3 0 0 0 3-3V3a3 3 0 0 0-3-3zM12 26H8V12h4v14zm-2-16a2 2 0 1 1 0-4 2 2 0 0 1 0 4zm16 16h-4v-8a2 2 0 1 0-4 0v8h-4V12h4v2.48c.82-1.13 2.09-2.48 3.5-2.48 2.49 0 4.5 2.24 4.5 5v9z"/>
    </symbol>
    <symbol id="icon-moon" viewBox="0 0 32 32">
      <path fill="currentColor" d="M17.7 32a15.97 15.97 0 0 0 12.43-5.92.75.75 0 0 0-.72-1.21 12.54 12.54 0 0 1-8.55-23.21.75.75 0 0 0-.23-1.4A16 16 0 1 0 17.7 32z"/>
    </symbol>
    <symbol id="icon-sun" viewBox="0 0 32 32">
      <path fill="currentColor" d="M16 10c-3.3 0-6 2.7-6 6s2.7 6 6 6 6-2.7 6-6-2.7-6-6-6zm15.4 5.03-5.92-2.96 2.1-6.27a1.08 1.08 0 0 0-1.37-1.37l-6.28 2.1L16.97.6c-.4-.8-1.54-.8-1.94 0l-2.95 5.92-6.29-2.1A1.08 1.08 0 0 0 4.43 5.8l2.09 6.28L.6 15.03c-.8.4-.8 1.54 0 1.94l5.92 2.96-2.1 6.28c-.28.85.53 1.65 1.37 1.37l6.28-2.1 2.95 5.92c.4.8 1.54.8 1.94 0l2.96-5.92 6.27 2.1c.85.28 1.66-.53 1.37-1.37l-2.1-6.28 5.93-2.95c.81-.41.81-1.55.01-1.95zm-9.74 6.63a8 8 0 0 1-11.32-11.32 8 8 0 0 1 11.32 11.32z"/>
    </symbol>
  </defs>
</svg>
